<svg width="50" height="50" viewBox="0 0 50 50" fill="none" xmlns="http://www.w3.org/2000/svg">
<path d="M27.9412 1.36029C26.1029 0.379902 23.8971 0.379902 22.0588 1.36029L3.30882 11.3603C1.27218 12.4465 0 14.5668 0 16.875V17.8547L20.9642 30.1422L25 27.9L29.0358 30.1422L50 17.8547V16.875C50 14.5668 48.7278 12.4465 46.6912 11.3603L27.9412 1.36029Z" fill="#F3F3F3"/>
<path d="M50 21.4769L32.2086 31.9048L50 41.7889V21.4769Z" fill="#F3F3F3"/>
<path d="M49.816 45.2616L25 31.4749L0.184024 45.2616C0.859969 47.983 3.31944 50 6.25 50H43.75C46.6806 50 49.14 47.983 49.816 45.2616Z" fill="#F3F3F3"/>
<path d="M0 41.7889L17.7914 31.9048L0 21.4769V41.7889Z" fill="#F3F3F3"/>
</svg>
