<svg width="50" height="50" viewBox="0 0 50 50" fill="none" xmlns="http://www.w3.org/2000/svg">
<path fill-rule="evenodd" clip-rule="evenodd" d="M5.88991 1.59711C8.20902 -0.721996 12.0359 -0.483741 14.0495 2.10511L19.6548 9.31196C20.6834 10.6345 21.0469 12.3565 20.6406 13.982L18.9304 20.8228C18.7498 21.545 18.9614 22.309 19.4878 22.8354L27.1646 30.5122C27.691 31.0386 28.455 31.2502 29.1772 31.0697L36.018 29.3594C37.6435 28.9531 39.3655 29.3166 40.688 30.3452L47.8949 35.9505C50.4837 37.9641 50.722 41.791 48.4029 44.1101L45.1719 47.3411C42.8603 49.6527 39.4027 50.6678 36.1805 49.5349C28.1798 46.722 20.6699 42.1169 14.2765 35.7235C7.88311 29.3301 3.27797 21.8202 0.465119 13.8195C-0.667757 10.5973 0.347281 7.13975 2.65891 4.82812L5.88991 1.59711Z" fill="#EBEBEB"/>
</svg>
